PathFileType	4	(X/Y/Z)	Sub_1_bilateral_squat02_.centers_.trc
DataRate	CameraRate	NumFrames	NumMarkers	Units	OrigDataRate	OrigDataStartFrame	OrigNumFrames
60.0	60.0	4	120	mm	100.0	315	597
Frame#	Time		Back_Left_Head		Back_Right_Head		C7		CenterHead		COP_Projection		COP_Projection_GroundY		F_LHIP		F_RHIP		Front_Left_Head		Front_Right_Head		Girdle_Center		Head		JC.L.Elbow		JC.L.Hand		JC.L.Wrist		JC.R.Elbow		JC.R.Hand		JC.R.Wrist		JC_L.Hip		JC_R.Hip		L.Ankle.Center		L.Ankle.Lateral		L.Elbow		L.Hand		L.Heel		L.Hip		L.Iliac.Crest		L.Knee.Center		L.Knee.Lateral		L.PSIS		L.Shank.Front		L.Shank.Rear		L.Shank.Upper		L.Shoulder		L.Thigh.Front		L.Thigh.Rear		L.Thigh.Upper		L.Toe		L.Wrist.Radial		L.Wrist.Ulnar		LAB_Origin		LAB_X		LAB_Y		LAB_Z		LDFA midpoint		LEFT_FOOT_BORDER1		LEFT_FOOT_BORDER2		LEFT_FOOT_BORDER3		LForearmX		LForearmY		LForearmZ		LHandX		LHandY		LHandZ		LHIP		LLowerArmX		LLowerArmY		LLowerArmZ		LMID_MALLEOLI_V		LPFA midpoint		mid_ASIS		Mid_ASIS_Projection		Mid_ASIS_Projection_Lateral		Mid_ASIS_Projection_LateralZ		North_Virtual_Origin		Offset		Pelvis.Center		Pelvis_Center		PelvisX		PelvisY		PelvisZ		R.Ankle.Center		R.Ankle.Lateral		R.Elbow		R.Hand		R.Heel		R.Hip		R.Iliac.Crest		R.Knee.Center		R.Knee.Lateral		R.Shank.Front		R.Shank.Rear		R.Shank.Upper		R.Shoulder		R.Thigh.Front		R.Thigh.Rear		R.Thigh.Upper		R.Toe		R.Wrist.Radial		R.Wrist.Ulnar		RDFA midpoint		RForearmX		RForearmY		RForearmZ		RHandX		RHandY		RHandZ		RHIP		RIGHT_FOOT_BORDER1		RIGHT_FOOT_BORDER2		RIGHT_FOOT_BORDER3		RLowerArmX		RLowerArmY		RLowerArmZ		RMID_MALLEOLI_V		RPFA midpoint		V.Sacral		v3d_lab_lat_distal		v3d_lab_lat_prox		v3d_lab_med_distal		v3d_lab_med_prox		V_L.Hip.skin		V_R.Hip.skin		V_V.Sacral.skin		Virtual_Lab_Origin		X.Shell.Lower.Shank.Left		X.Shell.Lower.Shank.Right		X.Shell.Lower.Thigh.Left		X.Shell.Lower.Thigh.Right		Z_Virtual_Lab_Origin
			X1	Y1	Z1	X2	Y2	Z2	X3	Y3	Z3	X4	Y4	Z4	X5	Y5	Z5	X6	Y6	Z6	X7	Y7	Z7	X8	Y8	Z8	X9	Y9	Z9	X10	Y10	Z10	X11	Y11	Z11	X12	Y12	Z12	X13	Y13	Z13	X14	Y14	Z14	X15	Y15	Z15	X16	Y16	Z16	X17	Y17	Z17	X18	Y18	Z18	X19	Y19	Z19	X20	Y20	Z20	X21	Y21	Z21	X22	Y22	Z22	X23	Y23	Z23	X24	Y24	Z24	X25	Y25	Z25	X26	Y26	Z26	X27	Y27	Z27	X28	Y28	Z28	X29	Y29	Z29	X30	Y30	Z30	X31	Y31	Z31	X32	Y32	Z32	X33	Y33	Z33	X34	Y34	Z34	X35	Y35	Z35	X36	Y36	Z36	X37	Y37	Z37	X38	Y38	Z38	X39	Y39	Z39	X40	Y40	Z40	X41	Y41	Z41	X42	Y42	Z42	X43	Y43	Z43	X44	Y44	Z44	X45	Y45	Z45	X46	Y46	Z46	X47	Y47	Z47	X48	Y48	Z48	X49	Y49	Z49	X50	Y50	Z50	X51	Y51	Z51	X52	Y52	Z52	X53	Y53	Z53	X54	Y54	Z54	X55	Y55	Z55	X56	Y56	Z56	X57	Y57	Z57	X58	Y58	Z58	X59	Y59	Z59	X60	Y60	Z60	X61	Y61	Z61	X62	Y62	Z62	X63	Y63	Z63	X64	Y64	Z64	X65	Y65	Z65	X66	Y66	Z66	X67	Y67	Z67	X68	Y68	Z68	X69	Y69	Z69	X70	Y70	Z70	X71	Y71	Z71	X72	Y72	Z72	X73	Y73	Z73	X74	Y74	Z74	X75	Y75	Z75	X76	Y76	Z76	X77	Y77	Z77	X78	Y78	Z78	X79	Y79	Z79	X80	Y80	Z80	X81	Y81	Z81	X82	Y82	Z82	X83	Y83	Z83	X84	Y84	Z84	X85	Y85	Z85	X86	Y86	Z86	X87	Y87	Z87	X88	Y88	Z88	X89	Y89	Z89	X90	Y90	Z90	X91	Y91	Z91	X92	Y92	Z92	X93	Y93	Z93	X94	Y94	Z94	X95	Y95	Z95	X96	Y96	Z96	X97	Y97	Z97	X98	Y98	Z98	X99	Y99	Z99	X100	Y100	Z100	X101	Y101	Z101	X102	Y102	Z102	X103	Y103	Z103	X104	Y104	Z104	X105	Y105	Z105	X106	Y106	Z106	X107	Y107	Z107	X108	Y108	Z108	X109	Y109	Z109	X110	Y110	Z110	X111	Y111	Z111	X112	Y112	Z112	X113	Y113	Z113	X114	Y114	Z114	X115	Y115	Z115	X116	Y116	Z116	X117	Y117	Z117	X118	Y118	Z118	X119	Y119	Z119	X120	Y120	Z120

315	5.23333	-151.78822	1519.24518	-102.62473	-2.70472	1522.32998	-112.12654	-82.12311	1386.08750	-88.89096	-75.67502	1544.53713	-171.20758	-75.53073	0.00000	-204.15108	-75.53073	0.00000	-304.15106	-138.63489	875.53992	-233.58290	-4.97762	875.12708	-232.57194	-148.64531	1566.74415	-230.28862	-20.64827	1567.59385	-236.69092	-83.71154	1402.45779	-152.65828	-74.68156	1637.15470	-134.29392	-222.78848	1316.96198	-458.12170	-197.24062	1409.35176	-732.04228	-202.38974	1368.47151	-670.54805	58.75732	1321.73953	-460.22813	41.29549	1370.91958	-742.58065	40.12295	1391.23256	-671.84232	-130.08009	875.36579	-234.74538	-13.13577	874.78530	-234.48340	-187.08059	78.02368	-142.44920	-220.42648	72.44754	-129.02775	-222.78848	1316.96198	-458.12170	-199.00158	1382.51541	-737.74019	-185.31600	47.00231	-77.29830	-175.59018	937.02790	-291.70872	-223.08140	958.42193	-238.64484	-167.73067	462.83635	-153.23921	-228.36353	471.04878	-154.00479	-125.49731	974.64170	-117.39367	-242.47278	222.72861	-147.21341	-242.74789	224.33704	-97.83416	-250.19879	264.80023	-118.16708	-209.86384	1401.41730	-152.49094	-252.62720	609.64332	-195.40627	-243.61088	622.31096	-138.80230	-247.14804	649.31348	-175.64881	-211.53175	39.77720	-288.72116	-172.67691	1367.13119	-673.41838	-232.10257	1369.81175	-667.67772	0.00000	0.00000	-0.00000	999.99994	0.00000	-0.00000	0.00000	0.00000	-999.99994	0.00000	999.99994	-0.00000	-202.38974	1368.47151	-670.54805	-211.05880	41.95335	-288.89249	-223.19287	74.01867	-130.27891	-182.93901	51.28962	-76.27323	-152.71880	1364.11070	-666.83563	-199.04116	1416.87960	-658.48837	-207.03570	1356.73985	-622.16637	-147.38658	1406.11347	-730.02062	-195.66687	1450.90897	-704.28398	-200.71872	1381.73811	-690.50446	-220.16619	860.08212	-317.37334	-182.26130	1367.08714	-670.58016	-228.75401	1418.21993	-655.61814	-229.94969	1357.59608	-619.24072	-186.27021	81.36324	-142.02108	-212.58911	1342.71682	-564.33488	-71.17560	936.50963	-291.47480	-71.17560	0.00000	-291.47480	-75.53073	0.00000	-291.47480	-75.53073	100.00000	-291.47480	0.00000	0.00000	999.99994	-192.78244	1319.66050	-79.28986	-71.18418	937.77464	-284.84442	-75.53073	953.19339	-204.15108	28.81433	937.27831	-284.62037	-66.10373	919.03171	-382.94075	-70.65463	1036.00148	-303.58489	80.84538	79.28577	-145.33485	113.41223	76.84483	-130.65541	58.75732	1321.73953	-460.22813	39.68345	1398.07081	-739.83971	81.02363	45.07896	-78.88096	33.23897	935.99133	-291.24090	76.50434	950.57989	-235.01329	29.73058	461.01696	-167.07837	88.61360	468.71751	-172.09625	121.77345	257.67431	-139.01071	114.45239	248.19627	-90.07221	129.87298	282.99549	-107.73161	42.44075	1403.49819	-152.82561	111.81973	634.59263	-213.91467	104.49952	617.67741	-153.91280	117.78267	655.61157	-178.27032	116.05915	43.48565	-283.70712	9.31707	1389.43186	-672.12373	70.92883	1393.03304	-671.56086	40.12295	1391.23256	-671.84232	-9.61781	1387.15803	-668.80027	43.03480	1343.88565	-687.64720	44.29151	1375.68677	-624.50361	-8.47087	1366.12347	-742.02832	46.05717	1323.10118	-728.77036	40.49900	1384.71796	-694.52887	-14.73434	873.13899	-243.13171	116.27837	43.52917	-284.70743	113.61502	77.61283	-128.82176	81.80534	45.92335	-79.36708	21.08811	1391.13939	-675.07021	73.84057	1345.68614	-687.36577	68.20427	1377.07415	-624.25456	78.20693	79.93204	-144.74671	49.44014	1356.48601	-566.03521	-79.88586	969.87722	-116.82736	0.00000	-1.00000	-1.00000	0.00000	0.00000	-1.00000	0.00000	-1.00000	1.00000	0.00000	0.00000	1.00000	-175.59875	938.29296	-285.07832	33.23039	937.25639	-284.61049	-79.54292	968.61203	-123.44885	0.00000	0.00000	-0.00000	-248.53834	196.46734	-126.87625	123.44037	213.84332	-117.11983	-244.14653	582.16185	-155.78280	107.96177	583.63435	-189.05442	0.00000	999.99994	-0.00000
316	5.25000	-151.50533	1519.55711	-102.75698	-2.34268	1522.36344	-112.51806	-81.97818	1386.09548	-89.15578	-75.41342	1544.58249	-171.51633	-75.48966	0.00000	-204.29170	-75.48966	0.00000	-304.29169	-138.63730	875.59203	-233.73957	-4.98037	875.11868	-232.71030	-148.48415	1566.80160	-230.51461	-20.47838	1567.40144	-237.11998	-83.56361	1402.40780	-152.82643	-74.21658	1637.24672	-134.77490	-222.74847	1316.90838	-458.32172	-197.15270	1409.34234	-732.18673	-202.33357	1368.39999	-670.80139	59.09396	1321.86663	-460.41369	41.71590	1371.31692	-742.72620	40.59495	1391.57683	-671.96359	-130.05311	875.39449	-234.89387	-13.11029	874.79775	-234.63536	-187.06171	78.04290	-142.42569	-220.41784	72.47022	-129.04926	-222.74847	1316.90838	-458.32172	-198.92092	1382.53499	-737.92202	-185.31821	47.00346	-77.31652	-175.55574	937.07435	-291.84210	-223.04267	958.45624	-238.78478	-167.79209	462.81408	-153.33522	-228.35536	471.05894	-154.14670	-125.44723	974.63849	-117.52691	-242.45280	222.74067	-147.28309	-242.74411	224.35920	-97.92836	-250.19102	264.83041	-118.25687	-209.73954	1401.42995	-152.69326	-252.58805	609.66119	-195.60773	-243.63735	622.32752	-139.00936	-247.12160	649.31531	-175.85501	-211.54263	39.77774	-288.72851	-172.60514	1367.05337	-673.67253	-232.06200	1369.74668	-667.93031	0.00000	0.00000	-0.00000	999.99994	0.00000	-0.00000	0.00000	0.00000	-999.99994	0.00000	999.99994	-0.00000	-202.33357	1368.39999	-670.80139	-211.10183	42.01222	-288.90918	-223.15392	74.14636	-130.30328	-182.95861	51.32722	-76.29209	-152.66345	1364.03089	-667.08792	-198.97662	1416.80905	-658.74757	-206.98217	1356.67497	-622.41837	-147.30027	1406.08933	-730.14886	-195.58109	1450.85708	-704.36486	-200.65479	1381.66667	-690.69225	-220.14382	860.14038	-317.52122	-182.22127	1367.01341	-670.83386	-228.70509	1418.15574	-655.87648	-229.90973	1357.53626	-619.49193	-186.28856	81.40537	-142.05698	-212.54101	1342.65422	-564.56159	-71.14252	936.54155	-291.61129	-71.14252	0.00000	-291.61129	-75.48966	-0.00000	-291.61129	-75.48966	100.00000	-291.61129	0.00000	0.00000	999.99994	-192.64388	1319.70798	-79.49279	-71.15073	937.80520	-284.98064	-75.48966	953.20574	-204.29170	28.84772	937.29492	-284.75958	-66.07891	919.08251	-383.08129	-70.60808	1036.03603	-303.70009	80.81990	79.28875	-145.31124	113.40458	76.86321	-130.68976	59.09396	1321.86663	-460.41369	40.13685	1398.47068	-739.96266	81.01871	45.04009	-78.94517	33.27070	936.00880	-291.38049	76.56003	950.56717	-235.19849	28.98901	461.44232	-166.74617	88.60081	468.70558	-172.20705	121.74389	257.66782	-139.05617	114.42984	248.20994	-90.13184	129.84911	283.00968	-107.77081	42.61232	1403.38568	-152.95962	111.77276	634.56774	-214.11199	104.50413	617.66053	-154.06143	117.93158	655.58732	-178.59767	116.05583	43.49239	-283.72475	9.77032	1389.81597	-672.27434	71.41958	1393.33768	-671.65288	40.59495	1391.57683	-671.96359	-9.15112	1387.55454	-668.93900	43.45879	1344.24160	-687.81203	44.73331	1375.98217	-624.63835	-8.05641	1366.58447	-742.15967	46.42093	1323.48134	-728.95598	40.95453	1385.07772	-694.66310	-14.70938	873.15295	-243.28261	116.19289	43.52427	-284.73606	113.58014	77.61228	-128.85052	81.85091	45.87734	-79.37331	21.57800	1391.50368	-675.18156	74.28336	1346.00244	-687.50125	68.66023	1377.33741	-624.36253	78.21367	79.89901	-144.77516	49.84445	1356.72176	-566.18864	-79.83679	969.86993	-116.97209	0.00000	-1.00000	-1.00000	0.00000	0.00000	-1.00000	0.00000	-1.00000	1.00000	0.00000	0.00000	1.00000	-175.56395	938.33795	-285.21144	33.26250	937.27242	-284.74983	-79.49445	968.60616	-123.59388	0.00000	0.00000	-0.00000	-248.50150	196.49355	-126.95212	123.41473	213.84950	-117.17462	-244.13184	582.18902	-155.98226	107.91783	583.61632	-189.17680	0.00000	999.99994	-0.00000
317	5.26667	-151.18019	1519.87476	-102.80411	-1.94165	1522.38111	-112.89365	-81.82698	1386.11874	-89.36659	-75.15429	1544.61282	-171.79968	-75.43230	0.00000	-204.38739	-75.43230	0.00000	-304.38738	-138.62191	875.61591	-233.85331	-4.96515	875.09949	-232.81977	-148.36693	1566.84463	-230.70573	-20.30666	1567.19280	-237.56711	-83.41005	1402.38064	-153.01355	-73.72480	1637.34943	-135.28333	-222.69510	1316.88212	-458.53114	-197.03462	1409.32795	-732.34009	-202.26077	1368.30233	-670.99939	59.46571	1321.98486	-460.59802	42.20051	1371.71363	-742.90331	41.06288	1391.91434	-672.10675	-130.03124	875.38537	-235.01367	-13.07536	874.78463	-234.74237	-186.96246	78.07157	-142.45562	-220.40604	72.49352	-129.08251	-222.69510	1316.88212	-458.53114	-198.82091	1382.52480	-738.11178	-185.30302	47.02604	-77.32324	-175.53060	937.10068	-291.94346	-222.95579	958.49852	-238.79685	-167.75101	462.84686	-153.41486	-228.32829	471.05975	-154.28526	-125.38426	974.58366	-117.61219	-242.41140	222.75754	-147.34233	-242.69833	224.38482	-97.97600	-250.16138	264.84176	-118.33496	-209.59058	1401.47938	-152.92465	-252.54714	609.66228	-195.81198	-243.63964	622.34079	-139.22419	-247.10268	649.32139	-176.07740	-211.53936	39.77338	-288.74038	-172.49670	1366.93437	-673.85841	-232.02486	1369.67052	-668.14043	0.00000	0.00000	-0.00000	999.99994	0.00000	-0.00000	0.00000	0.00000	-999.99994	0.00000	999.99994	-0.00000	-202.26077	1368.30233	-670.99939	-211.10813	42.09928	-288.93173	-222.95855	74.50087	-130.36505	-183.04385	51.31937	-76.30007	-152.59280	1363.90923	-667.28575	-198.87919	1416.71282	-658.95820	-206.91435	1356.59235	-622.61325	-147.18471	1406.04498	-730.28861	-195.45017	1450.80589	-704.46405	-200.56675	1381.60060	-690.88267	-220.12499	860.18172	-317.65654	-182.18596	1366.91336	-671.05308	-228.64312	1418.08101	-656.09924	-229.86874	1357.47106	-619.69949	-186.33911	81.42404	-142.09287	-212.47793	1342.59229	-564.76525	-71.10570	936.56434	-291.70120	-71.10570	0.00000	-291.70120	-75.43230	-0.00000	-291.70120	-75.43230	100.00000	-291.70120	0.00000	0.00000	999.99994	-192.51484	1319.78387	-79.67923	-71.11460	937.82480	-285.06993	-75.43230	953.18474	-204.38739	28.88381	937.31121	-284.83797	-66.06629	919.14812	-383.18058	-70.56673	1036.06440	-303.74294	80.85023	79.28775	-145.33037	113.40079	76.84226	-130.70543	59.46571	1321.98486	-460.59802	40.64218	1398.87238	-740.11507	81.01100	45.04580	-78.93023	33.31921	936.02795	-291.45897	76.63513	950.53668	-235.30338	28.01548	462.03891	-166.08556	88.58961	468.67710	-172.32890	121.73352	257.67110	-139.09047	114.42056	248.22332	-90.13789	129.83322	283.02166	-107.80010	42.77048	1403.28179	-153.10247	111.75490	634.55181	-214.24790	104.51687	617.64501	-154.22087	118.15427	655.56885	-178.99466	116.06436	43.47191	-283.72575	10.24271	1390.17907	-672.42981	71.88304	1393.64949	-671.78364	41.06288	1391.91434	-672.10675	-8.68690	1387.92719	-669.09638	43.89383	1344.59182	-687.99898	45.17933	1376.27213	-624.79526	-7.57533	1367.01549	-742.36263	46.86619	1323.86220	-729.17473	41.42799	1385.43118	-694.82801	-14.66224	873.15246	-243.38820	116.24537	43.48534	-284.74710	113.57436	77.58873	-128.86592	81.82317	45.86119	-79.39805	22.04070	1391.85647	-675.32279	74.71388	1346.32687	-687.67582	69.10337	1377.60710	-624.50880	78.21378	79.87653	-144.80751	50.26430	1356.94955	-566.35240	-79.75892	969.80502	-117.07359	0.00000	-1.00000	-1.00000	0.00000	0.00000	-1.00000	0.00000	-1.00000	1.00000	0.00000	0.00000	1.00000	-175.53950	938.36118	-285.31219	33.31030	937.28840	-284.82770	-79.41815	968.54439	-123.69606	0.00000	0.00000	-0.00000	-248.46263	196.51900	-127.03399	123.40573	213.85499	-117.19849	-244.11792	582.20148	-156.18973	107.89942	583.60292	-189.37092	0.00000	999.99994	-0.00000
318	5.28333	-150.81102	1520.14000	-102.82523	-1.51477	1522.37359	-113.30118	-81.69474	1386.13912	-89.59093	-75.13401	1544.55921	-172.01177	-75.36128	0.00000	-204.48396	-75.36128	0.00000	-304.48396	-138.56187	875.65519	-233.96844	-4.90510	875.11316	-232.94997	-148.75326	1566.74479	-230.72235	-20.15402	1566.99032	-238.01647	-83.22091	1402.34318	-153.23988	-73.23379	1637.41843	-135.72727	-222.61002	1316.83940	-458.70512	-196.92235	1409.25854	-732.50988	-202.19415	1368.19251	-671.19035	59.90126	1322.11843	-460.87952	42.71173	1372.11727	-743.05344	41.58642	1392.25379	-672.29242	-129.98176	875.41532	-235.17067	-13.03978	874.78233	-234.88819	-186.96685	78.03255	-142.30382	-220.39900	72.49270	-129.07514	-222.61002	1316.83940	-458.70512	-198.73650	1382.45836	-738.30035	-185.29682	47.02763	-77.32057	-175.45312	937.18324	-292.04745	-222.93915	958.51088	-238.95562	-167.73677	462.86429	-153.42840	-228.28951	471.07307	-154.43281	-125.31102	974.48896	-117.69261	-242.36999	222.76978	-147.35294	-242.68491	224.40126	-98.02806	-250.12052	264.84842	-118.41990	-209.41833	1401.51666	-153.14215	-252.49841	609.64021	-196.00532	-243.64834	622.34839	-139.44975	-247.07172	649.32193	-176.28728	-211.52951	39.77540	-288.75361	-172.41401	1366.79823	-674.06749	-231.97426	1369.58682	-668.31329	0.00000	0.00000	-0.00000	999.99994	0.00000	-0.00000	0.00000	0.00000	-999.99994	0.00000	999.99994	-0.00000	-202.19415	1368.19251	-671.19035	-211.11436	42.12976	-288.95178	-222.77346	74.77208	-130.42030	-183.09302	51.29148	-76.31193	-152.52899	1363.75569	-667.49075	-198.76555	1416.60267	-659.16123	-206.84355	1356.49757	-622.80010	-147.07591	1405.92366	-730.45786	-195.29741	1450.71605	-704.60584	-200.48492	1381.50693	-691.07137	-220.06821	860.29851	-317.82695	-182.13894	1366.78556	-671.24459	-228.54556	1417.99707	-656.28415	-229.81008	1357.39635	-619.87045	-186.36978	81.41226	-142.13356	-212.40208	1342.51598	-564.94774	-71.04065	936.61809	-291.79523	-71.04065	0.00000	-291.79523	-75.36128	0.00000	-291.79523	-75.36128	100.00000	-291.79523	0.00000	0.00000	999.99994	-192.40276	1319.87766	-79.83951	-71.04988	937.87308	-285.16293	-75.36128	953.16351	-204.48396	28.94835	937.33183	-284.92137	-66.00775	919.27710	-383.28921	-70.47316	1036.12815	-303.75369	80.73703	79.28619	-145.20722	113.39435	76.84493	-130.71998	59.90126	1322.11843	-460.87952	41.14286	1399.25414	-740.24769	81.03289	45.06010	-78.93109	33.37181	936.05295	-291.54300	76.68843	950.54202	-235.41167	27.95895	462.04532	-166.35472	88.58133	468.67026	-172.45881	121.72331	257.66446	-139.09431	114.41842	248.23786	-90.18635	129.84341	283.02049	-107.84062	42.97651	1403.16961	-153.33762	111.76557	634.53327	-214.47741	104.54869	617.61933	-154.43916	118.19134	655.53531	-179.20846	116.05987	43.47270	-283.73123	10.76256	1390.50038	-672.56914	72.41028	1394.00718	-672.01575	41.58642	1392.25379	-672.29242	-8.16475	1388.26670	-669.30517	44.42054	1344.94725	-688.23170	45.68380	1376.56312	-624.99538	-7.06496	1367.42832	-742.51068	47.36967	1324.25532	-729.35931	41.94704	1385.80091	-694.96836	-14.62980	873.15090	-243.52713	116.37522	43.43004	-284.74656	113.60165	77.55890	-128.87271	81.78340	45.86453	-79.42666	22.56925	1392.22113	-675.57674	75.24434	1346.70067	-687.95505	69.61046	1377.91671	-624.75841	78.22845	79.86167	-144.83890	50.74384	1357.18607	-566.58598	-79.68192	969.70902	-117.17267	0.00000	-1.00000	-1.00000	0.00000	0.00000	-1.00000	0.00000	-1.00000	1.00000	0.00000	0.00000	1.00000	-175.46235	938.43821	-285.41515	33.36258	937.30793	-284.91071	-79.34157	968.45380	-123.79619	0.00000	0.00000	-0.00000	-248.42818	196.50932	-127.07096	123.40514	213.85786	-117.21621	-244.08686	582.19027	-156.37935	107.91064	583.58054	-189.57890	0.00000	999.99994	-0.00000
